{"title":"Jurassic.World.2015.HD-TS.XVID.AC3.HQ.Hive-CM8","uid":12013449,"size":1811439358,"categoryP":"video","categoryS":"movies","magnet":"?xt=urn:btih:51ff27609b7bd24c58f42fa18effc3085fd4e328&amp;dn=Jurassic.World.2015.HD-TS.XVID.AC3.HQ.Hive-CM8&amp;tr=udp%3A%2F%2Ftracker.openbittorrent.com%3A80&amp;tr=udp%3A%2F%2Fopen.demonii.com%3A1337&amp;tr=udp%3A%2F%2Ftracker.coppersurfer.tk%3A6969&amp;tr=udp%3A%2F%2Fexodus.desync.com%3A6969","seeders":433,"leechers":95,"uploader":"xxxlavalxxx","files":4,"time":1434264380,"description":" &lt;a href=&quot;http://extraimago.com/image/jC4&quot; rel=&quot;nofollow&quot; target=&quot;_NEW&quot;&gt;http://extraimago.com/image/jC4&lt;/a&gt;\n &lt;a href=&quot;\nhttp://www.imdb.com/title/tt0369610/&quot; rel=&quot;nofollow&quot; target=&quot;_NEW&quot;&gt;\nhttp://www.imdb.com/title/tt0369610/&lt;/a&gt;\n\n\nTwenty-two years after the events of Jurassic Park, Isla Nublar now features a fully functioning dinosaur theme park, Jurassic World, as originally envisioned by John Hammond. After 10 years of operation and visitor rates declining, in order to fulfill a corporate mandate, a new attraction is created to re-spark visitor's interest, which backfires horribly.\n\nDirector: Colin Trevorrow\nWriters: Rick Jaffa (screenplay), Amanda Silver (screenplay)\nStars: Chris Pratt, Bryce Dallas Howard, Ty Simpkins \nGenres: Action | Adventure | Sci-Fi | Thriller\nCountry: USA | China\nLanguage: English\n\n\nJurassic.World.2015.HD-TS.XVID.AC3.HQ.Hive-CM8\n\nThx Hive\n\nCM8 Doing It Right The First Time\n\nSources:\n\nVideo: Spanish HDCAM Thx no special mystery vobs here folks or source from a &quot;friend&quot; :lol:\nAudio: Sweet Line Big Thx to S4NDM4N\nwhich is marked btw so none of this new line audio crap yes im looking at you\n\nNotes:\n\n1 Day after Cinedate,a perfect release, beat that, lol\ngot that great cam last night, was good to begin with, and a perfect line\n\nThis great movie deserves nothing less than a good video and good audio track to enjoy\ndaylight and nightscenes are shot perfectly, also in fast action scenes all is running as it should\n\nEncode:\n\nVideo needed some perspective fixing, added brightness,contrast,fixed colours, removed slight pulsating flicker, its perfect now\n\nfor the Audio i got some very nice line, it is damned perfect\ncleaned it my usual way and lipsynced it to my video\nthx m8 you did a great job on this audio, i do hope we see/hear more from you in the future!!!\n\ngot very nice\nthis will do me till retail\nenjoy\n\nPS:\n\ntwo things i want to add already are:\nVideo is complete, nothing was cut out or is missing, rolling endcredits werent cammed hence runtime 9mins shorter than imdb\nfor the RatingLovers i would say Video 8/10 Audio 10/10\nit wont get better than this but you are quite welcome to wait for the wannabe to do it\n\nVideo: 720x384 @bitrate 1800 2pass\nAudio: Line AC3 Stereo 2.0\nSample: yes\n &lt;a href=&quot;\nhttp://www.imdb.com/title/tt0369610/&quot; rel=&quot;nofollow&quot; target=&quot;_NEW&quot;&gt;\nhttp://www.imdb.com/title/tt0369610/&lt;/a&gt;\n\nGeneral\nComplete name: Jurassic.World.2015.HD-TS.XVID.AC3.HQ.Hive-CM8.avi\nFormat: AVI\nFormat/Info: Audio Video Interleave\nFile size: 1.67 GiB\nDuration: 1h 55mn\nOverall bit rate: 2 065 Kbps\nWriting application: Nandub v1.0rc2\nWriting library: Nandub build 1853/release\n\nVideo\nID: 0\nFormat: MPEG-4 Visual\nFormat profile: Advanced Simple@L5\nFormat settings, BVOP: 2\nFormat settings, QPel: Yes\nFormat settings, GMC: No warppoints\nFormat settings, Matrix: Default (H.263)\nMuxing mode: Packed bitstream\nCodec ID: XVID\nCodec ID/Hint: XviD\nDuration: 1h 55mn\nBit rate: 1 800 Kbps\nWidth: 720 pixels\nHeight: 384 pixels\nDisplay aspect ratio: 1.85:1\nFrame rate: 25.000 fps\nColor space: YUV\nChroma subsampling: 4:2:0\nBit depth: 8 bits\nScan type: Progressive\nCompression mode: Lossy\nBits/(Pixel*Frame): 0.260\nStream size: 1.45 GiB (87%)\nWriting library: XviD 1.2.1 (UTC 2008-12-04)\n\nAudio\nID: 1\nFormat: AC-3\nFormat/Info: Audio Coding 3\nMode extension: CM (complete main)\nFormat settings, Endianness: Big\nCodec ID: 2000\nDuration: 1h 55mn\nBit rate mode: Constant\nBit rate: 256 Kbps\nChannel(s): 2 channels\nChannel positions: Front: L R\nSampling rate: 48.0 KHz\nBit depth: 16 bits\nCompression mode: Lossy\nStream size: 212 MiB (12%)\nAlignment: Split accross interleaves\nInterleave, duration: 40 ms (1.00 video frame)\nInterleave, preload duration: 500 ms\n\n &lt;a href=&quot;\nhttp://extraimago.com/image/jCB&quot; rel=&quot;nofollow&quot; target=&quot;_NEW&quot;&gt;\nhttp://extraimago.com/image/jCB&lt;/a&gt; &lt;a href=&quot;\nhttp://extraimago.com/image/jCC&quot; rel=&quot;nofollow&quot; target=&quot;_NEW&quot;&gt;\nhttp://extraimago.com/image/jCC&lt;/a&gt; &lt;a href=&quot;\nhttp://extraimago.com/image/jCY&quot; rel=&quot;nofollow&quot; target=&quot;_NEW&quot;&gt;\nhttp://extraimago.com/image/jCY&lt;/a&gt; &lt;a href=&quot;\nhttp://extraimago.com/image/jCp&quot; rel=&quot;nofollow&quot; target=&quot;_NEW&quot;&gt;\nhttp://extraimago.com/image/jCp&lt;/a&gt; &lt;a href=&quot;\nhttp://extraimago.com/image/jCr&quot; rel=&quot;nofollow&quot; target=&quot;_NEW&quot;&gt;\nhttp://extraimago.com/image/jCr&lt;/a&gt; &lt;a href=&quot;\nhttp://extraimago.com/image/jCG&quot; rel=&quot;nofollow&quot; target=&quot;_NEW&quot;&gt;\nhttp://extraimago.com/image/jCG&lt;/a&gt; &lt;a href=&quot;\nhttp://extraimago.com/image/jCP&quot; rel=&quot;nofollow&quot; target=&quot;_NEW&quot;&gt;\nhttp://extraimago.com/image/jCP&lt;/a&gt; &lt;a href=&quot;\nhttp://extraimago.com/image/jCX&quot; rel=&quot;nofollow&quot; target=&quot;_NEW&quot;&gt;\nhttp://extraimago.com/image/jCX&lt;/a&gt;","torrent":{"xt":"urn:btih:51ff27609b7bd24c58f42fa18effc3085fd4e328","amp;dn":"Jurassic.World.2015.HD-TS.XVID.AC3.HQ.Hive-CM8","amp;tr":["udp%3A%2F%2Ftracker.openbittorrent.com%3A80","udp%3A%2F%2Fopen.demonii.com%3A1337","udp%3A%2F%2Ftracker.coppersurfer.tk%3A6969","udp%3A%2F%2Fexodus.desync.com%3A6969"],"infoHash":"51ff27609b7bd24c58f42fa18effc3085fd4e328","infoHashBuffer":{"type":"Buffer","data":[81,255,39,96,155,123,210,76,88,244,47,161,142,255,195,8,95,212,227,40]},"announce":[],"urlList":[]}}